<?xml version="1.0" encoding="UTF-8" standalone="no"?>
<!-- Created with Inkscape (http://www.inkscape.org/) -->

<svg
   xmlns:dc="http://purl.org/dc/elements/1.1/"
   xmlns:cc="http://creativecommons.org/ns#"
   xmlns:rdf="http://www.w3.org/1999/02/22-rdf-syntax-ns#"
   xmlns:svg="http://www.w3.org/2000/svg"
   xmlns="http://www.w3.org/2000/svg"
   xmlns:sodipodi="http://sodipodi.sourceforge.net/DTD/sodipodi-0.dtd"
   xmlns:inkscape="http://www.inkscape.org/namespaces/inkscape"
   width="164.86472mm"
   height="139.70166mm"
   viewBox="0 0 164.86472 139.70166"
   version="1.1"
   id="svg41"
   inkscape:version="0.92.4 (f8dce91, 2019-08-02)"
   sodipodi:docname="logo.svg">
  <defs
     id="defs35">
    <inkscape:path-effect
       effect="transform_2pts"
       start="26.498014,136.82576"
       end="188.18025,136.82576"
       id="path-effect5145"
       is_visible="true"
       first_knot="1"
       last_knot="2"
       helper_size="3"
       stretch="1"
       offset="0"
       elastic="false"
       from_original_width="true"
       flip_vertical="false"
       flip_horizontal="false"
       lock_lenght="false"
       lock_angle="false" />
    <inkscape:path-effect
       effect="lattice2"
       gridpoint0="25.97993,94.502879"
       gridpoint1="175.45052,94.502879"
       gridpoint2="25.97993,172.41626"
       gridpoint3="175.45052,172.41626"
       gridpoint4="63.347578,94.502879"
       gridpoint5="138.08287,94.502879"
       gridpoint6="63.347578,172.41626"
       gridpoint7="138.08287,172.41626"
       gridpoint8x9="100.71523,94.502879"
       gridpoint10x11="100.71523,172.41626"
       gridpoint12="25.97993,113.98122"
       gridpoint13="175.45052,113.98122"
       gridpoint14="25.97993,152.93791"
       gridpoint15="175.45052,152.93791"
       gridpoint16="63.347578,113.98122"
       gridpoint17="138.08287,113.98122"
       gridpoint18="63.347578,152.93791"
       gridpoint19="138.08287,152.93791"
       gridpoint20x21="100.71523,113.98122"
       gridpoint22x23="100.71523,152.93791"
       gridpoint24x26="25.97993,133.45957"
       gridpoint25x27="175.45052,133.45957"
       gridpoint28x30="63.347578,133.45957"
       gridpoint29x31="138.08287,133.45957"
       gridpoint32x33x34x35="100.71523,133.45957"
       id="path-effect5141"
       is_visible="true"
       horizontal_mirror="false"
       vertical_mirror="false"
       live_update="true" />
    <inkscape:path-effect
       effect="bend_path"
       id="path-effect5139"
       is_visible="true"
       bendpath="M 26.469655,137.89423 C 82.403412,122.64001 135.78276,137.76199 174.98302,151.37498"
       prop_scale="1.1097798"
       scale_y_rel="false"
       vertical="false"
       bendpath-nodetypes="cc" />
    <inkscape:path-effect
       effect="bspline"
       id="path-effect5137"
       is_visible="true"
       weight="33.333333"
       steps="2"
       helper_size="0"
       apply_no_weight="true"
       apply_with_weight="true"
       only_selected="false" />
    <inkscape:path-effect
       effect="bspline"
       id="path-effect5135"
       is_visible="true"
       weight="33.333333"
       steps="2"
       helper_size="0"
       apply_no_weight="true"
       apply_with_weight="true"
       only_selected="false" />
    <inkscape:path-effect
       effect="envelope"
       id="path-effect4960"
       is_visible="true"
       yy="true"
       xx="true"
       bendpath1="m 26.498014,125.82226 c 83.817146,-44.507425 117.594376,-14.58571 161.682236,0"
       bendpath2="m 188.18025,125.82226 v 22.007"
       bendpath3="m 26.498014,147.82926 c 53.000223,35.933 106.918186,34.97266 161.682236,0"
       bendpath4="m 26.498014,125.82226 v 22.007"
       bendpath1-nodetypes="cc"
       bendpath3-nodetypes="cc" />
    <circle
       id="path43-3"
       cx="-135.72093"
       cy="106.24911"
       r="47.930119"
       style="fill:#0a6a1d;fill-opacity:1;stroke:#000000;stroke-width:0.54889297;stroke-miterlimit:4;stroke-dasharray:none;stroke-opacity:1"
       transform="rotate(-90)" />
  </defs>
  <sodipodi:namedview
     id="base"
     pagecolor="#ffffff"
     bordercolor="#666666"
     borderopacity="1.0"
     inkscape:pageopacity="0.0"
     inkscape:pageshadow="2"
     inkscape:zoom="0.5"
     inkscape:cx="-156.75474"
     inkscape:cy="416.06329"
     inkscape:document-units="mm"
     inkscape:current-layer="layer3"
     showgrid="false"
     inkscape:window-width="1920"
     inkscape:window-height="1055"
     inkscape:window-x="0"
     inkscape:window-y="25"
     inkscape:window-maximized="1"
     showborder="true"
     fit-margin-top="2"
     fit-margin-left="2"
     fit-margin-right="2.1"
     fit-margin-bottom="2"
     inkscape:showpageshadow="true" />
  <metadata
     id="metadata38">
    <rdf:RDF>
      <cc:Work
         rdf:about="">
        <dc:format>image/svg+xml</dc:format>
        <dc:type
           rdf:resource="http://purl.org/dc/dcmitype/StillImage" />
        <dc:title></dc:title>
      </cc:Work>
    </rdf:RDF>
  </metadata>
  <g
     inkscape:label="Layer 1"
     inkscape:groupmode="layer"
     id="layer1"
     transform="translate(-25.193131,-65.536431)"
     style="display:inline">
    <circle
       id="path43"
       cx="-135.72093"
       cy="106.24911"
       r="47.930119"
       style="fill:#0a6a1d;fill-opacity:1;stroke:#000000;stroke-width:0.54889297;stroke-miterlimit:4;stroke-dasharray:none;stroke-opacity:1"
       transform="rotate(-90)" />
    <circle
       transform="rotate(-90)"
       style="fill:none;stroke:#000000;stroke-width:0.01418001;stroke-miterlimit:4;stroke-dasharray:none;stroke-opacity:1"
       r="1.238219"
       cy="106.24911"
       cx="-135.72092"
       id="circle4570" />
  </g>
  <g
     inkscape:groupmode="layer"
     id="layer2"
     inkscape:label="Layer 2"
     style="display:inline"
     transform="translate(-25.193131,-65.536431)">
    <g
       transform="matrix(0.0982007,0,0,0.0982007,57.163044,86.688318)"
       id="g4687"
       style="fill:#6dcff7;fill-opacity:1">
      <g
         transform="matrix(0.1,0,0,-0.1,0,512)"
         id="g4685"
         style="fill:#6dcff7;fill-opacity:1">
        <path
           inkscape:connector-curvature="0"
           d="M 4635.7,5016.9 C 3994.9,4961.3 3415.6,4802 2861.1,4529.6 2337.4,4272.5 2003.6,4038.5 1591.1,3639.4 768.1,2841.3 290.4,1893.6 123.5,721.4 90.9,493.1 92.8,-260.9 125.4,-496.8 c 153.5,-1114.6 633.1,-2091.1 1402.4,-2858.5 777,-773.1 1734.3,-1243.1 2868.1,-1404.3 222.5,-30.7 961.2,-30.7 1199,0 920.9,122.8 1782.3,487.3 2486.3,1053.2 734.8,592.8 1283.5,1387 1582.7,2290.6 170.8,518 236,940 236,1532.8 1.9,602.4 -59.5,997.6 -237.9,1534.8 -257.1,778.9 -646.5,1398.5 -1248.9,1985.6 -750.1,731 -1661.3,1180 -2722.2,1343 -193.8,28.8 -867.2,53.7 -1055.2,36.5 z M 5485.6,4802 c 61.4,-59.5 65.2,-97.8 11.5,-143.9 -63.3,-55.6 -36.5,-80.6 76.7,-74.8 90.2,5.8 97.8,3.8 97.8,-36.5 0,-46 -49.9,-113.2 -84.4,-113.2 -49.9,0 -182.3,-287.8 -184.2,-397.1 0,-32.6 -11.5,-72.9 -24.9,-86.3 -15.3,-13.4 -30.7,-80.6 -38.4,-147.7 -11.5,-134.3 -57.5,-218.7 -122.8,-228.3 -49.9,-7.7 -71,-111.3 -32.6,-166.9 53.7,-76.7 34.5,-147.7 -72.9,-253.2 -107.4,-105.5 -209.1,-159.2 -301.2,-159.2 -32.6,0 -65.2,-11.5 -72.9,-26.9 -7.7,-13.4 -86.3,-61.4 -170.7,-103.6 -147.7,-74.8 -237.9,-151.6 -237.9,-205.3 0,-13.4 -13.4,-34.5 -30.7,-49.9 -17.3,-13.4 -55.6,-74.8 -86.3,-136.2 -30.7,-61.4 -63.3,-111.3 -71,-111.3 -32.6,0 -101.7,63.3 -132.4,120.9 -46,86.3 -67.1,441.2 -32.6,510.3 15.3,26.9 26.9,55.6 26.9,61.4 0,7.7 36.5,48 78.7,92.1 74.8,74.8 78.7,82.5 48,113.2 -44.1,49.9 -38.4,124.7 21.1,249.4 36.5,80.6 51.8,149.6 59.5,264.8 7.7,142 3.8,161.1 -34.5,199.5 -34.5,34.5 -53.7,38.4 -117,28.8 l -74.8,-13.4 v 76.7 c 0,49.9 11.5,86.3 38.4,109.4 21.1,19.2 44.1,69.1 49.9,109.4 11.5,65.2 19.2,74.8 92.1,94 42.2,11.5 99.8,28.8 126.6,34.5 32.6,9.6 51.8,34.5 63.3,80.6 9.6,36.5 26.9,71 38.4,78.7 11.5,7.7 17.3,19.2 9.6,24.9 -7.7,7.7 -46,-9.6 -86.3,-36.5 -38.4,-26.9 -80.6,-49.9 -88.2,-49.9 -49.9,0 -151.6,-69.1 -184.2,-124.7 -21.1,-36.5 -72.9,-86.3 -115.1,-113.2 -42.2,-26.9 -97.8,-84.4 -120.9,-126.6 -46,-80.6 -90.2,-95.9 -130.4,-48 -13.4,15.3 -40.3,28.8 -61.4,28.8 -19.2,0 -40.3,13.4 -46,28.8 -7.7,15.3 -19.2,23 -28.8,17.3 -26.9,-15.3 -21.1,65.2 7.7,86.3 11.5,9.6 57.5,49.9 99.8,88.3 l 76.7,69.1 -61.4,-11.5 c -34.5,-7.7 -63.3,-5.8 -63.3,1.9 0,7.7 30.7,76.7 67.1,153.5 55.6,115.1 76.7,142 130.4,159.2 174.6,53.7 667.6,136.2 824.9,136.2 94,0 115.1,-24.9 67.1,-74.8 -21.1,-21.1 -9.6,-23 57.6,-17.3 67.1,5.8 80.6,1.9 80.6,-26.9 0,-51.8 28.8,-42.2 55.6,17.3 17.3,38.4 26.9,46 40.3,24.9 13.4,-21.1 34.5,-15.3 118.9,24.9 142,69.1 145.8,69.1 274.3,57.6 88.1,-7.8 128.4,-23.1 168.7,-59.6 z M 3542.2,4589.1 c 0,-30.7 11.5,-59.5 28.8,-67.1 15.3,-5.8 28.8,-23 28.8,-38.4 0,-40.3 -88.3,-95.9 -126.6,-80.6 -28.8,11.5 -26.9,17.3 11.5,59.5 24.9,26.9 40.3,53.7 32.6,59.5 -7.7,7.7 -38.4,-13.4 -69.1,-48 -78.7,-82.5 -95.9,-74.8 -69.1,30.7 17.3,71 34.5,95.9 78.7,115.1 78.6,32.6 84.4,30.7 84.4,-30.7 z m 3077.2,-199.5 c 15.4,-24.9 11.5,-38.4 -17.3,-59.5 -122.8,-88.3 -117,-72.9 -59.5,-172.7 44.1,-76.7 48,-90.2 21.1,-99.8 -17.3,-7.7 -46,1.9 -65.2,21.1 -34.5,30.7 -38.4,28.8 -61.4,-36.5 -13.4,-38.4 -30.7,-69.1 -38.4,-69.1 -44.1,0 -69.1,24.9 -61.4,59.5 7.7,23 0,36.5 -17.3,36.5 -36.4,0 -97.8,155.4 -80.6,199.5 7.7,19.2 32.6,30.7 67.1,30.7 42.2,0 61.4,13.4 78.7,48 11.5,26.9 32.6,48 44.1,48 13.4,0 34.5,11.5 46.1,26.9 28.9,32.6 115.2,13.4 144,-32.6 z m -3576,-11.6 c -9.6,-21.1 -19.2,-42.2 -19.2,-48 0,-21.1 69.1,-11.5 103.6,13.4 26.9,19.2 53.7,21.1 109.4,5.8 42.2,-9.6 74.8,-24.9 74.8,-32.6 0,-5.8 -19.2,-36.5 -42.2,-65.2 -30.7,-38.4 -40.3,-74.8 -36.5,-126.6 3.8,-69.1 -34.5,-128.5 -51.8,-76.7 -5.8,15.4 -23,40.3 -42.2,59.5 -19.2,19.2 -40.3,69.1 -48,113.2 -13.4,84.4 -38.4,101.7 -57.6,40.3 -15.3,-49.9 -53.7,-69.1 -193.8,-94 -142,-26.9 -184.2,-13.4 -176.5,49.9 3.8,34.5 34.5,61.4 117,107.4 76.7,40.3 117,51.8 124.7,38.4 9.6,-15.3 28.8,-11.5 61.4,13.4 65.4,49.8 103.8,49.8 76.9,1.8 z m 418.2,-197.6 c -5.8,-59.5 -1.9,-63.3 74.8,-72.9 99.8,-15.3 107.4,-21.1 90.2,-84.4 -26.9,-113.2 -172.7,-136.2 -283.9,-48 -57.5,46 -63.3,103.6 -19.2,170.7 74.8,111.4 143.9,128.6 138.1,34.6 z m -936.2,-53.7 c 23,-13.4 21.1,-24.9 -17.3,-65.2 -36.4,-38.4 -42.2,-53.7 -23,-76.7 17.3,-21.1 17.3,-28.8 -1.9,-36.4 -19.2,-5.8 -19.2,-13.4 -1.9,-32.6 19.2,-21.1 44.1,-11.5 128.5,44.1 105.5,71 165,88.2 165,51.8 0,-11.5 -55.6,-103.6 -124.7,-207.2 -105.5,-155.4 -124.7,-199.5 -124.7,-266.7 0,-69.1 -5.8,-82.5 -36.5,-82.5 -21.1,0 -44.1,-7.7 -49.9,-19.2 -7.7,-11.5 -30.7,-9.6 -65.2,9.6 -46,23 -59.5,23 -90.2,1.9 -32.6,-24.9 -32.6,-28.8 -1.9,-76.7 44.1,-65.2 115.1,-82.5 176.5,-42.2 26.9,17.3 48,40.3 48,49.9 0,9.6 46,53.7 103.6,97.8 82.5,63.3 109.4,99.8 128.5,165 11.5,46 32.6,90.2 44.1,97.8 11.5,7.7 32.6,34.5 46,61.4 13.4,26.9 53.7,80.6 90.2,120.9 l 63.3,72.9 117,-34.5 117,-36.5 -44.1,-42.2 c -24.9,-23 -59.5,-42.2 -74.8,-42.2 -65.2,0 -145.8,-95.9 -188,-220.6 -23,-69.1 -49.9,-124.7 -59.5,-124.7 -36.5,0 -40.3,-59.5 -7.7,-95.9 28.8,-32.6 30.7,-46 11.5,-88.3 -38.4,-84.4 -5.8,-76.7 94,21.1 103.6,101.7 117,142 57.6,157.3 -46,11.5 -48,30.7 -9.6,71 15.3,15.4 28.8,49.9 28.8,76.7 0,86.3 245.6,282 318.5,253.2 17.3,-5.8 23,-21.1 17.3,-30.7 -7.7,-13.4 3.8,-17.3 36.5,-7.7 32.6,7.7 67.1,0 99.8,-21.1 48,-30.7 49.9,-38.4 38.4,-145.8 -11.5,-95.9 -7.7,-115.1 17.3,-124.7 19.2,-7.7 28.8,-26.9 23,-49.9 -7.7,-23 1.9,-40.3 21.1,-48 17.3,-7.7 38.4,-21.1 46,-32.6 21.1,-30.7 -3.8,-153.5 -34.5,-170.7 -34.5,-21.1 -34.5,-88.3 1.9,-101.7 17.3,-7.7 23,-28.8 17.3,-63.3 -7.7,-34.5 0,-63.3 19.2,-84.4 28.8,-28.8 26.9,-36.5 -28.8,-97.8 -71,-82.5 -88.2,-84.4 -113.2,-21.1 -38.4,97.8 -95.9,32.6 -59.5,-67.1 13.4,-42.2 13.4,-72.9 -1.9,-105.5 -28.8,-63.3 -188,-138.1 -188,-88.3 0,11.5 -36.5,59.5 -80.6,111.3 -57.6,67.1 -90.2,90.2 -122.8,86.3 -49.9,-7.7 -72.9,21.1 -55.6,71 13.4,42.2 74.8,63.3 103.6,34.5 15.4,-15.4 51.8,13.4 126.6,94 88.3,95.9 103.6,122.8 97.8,170.7 -15.4,107.4 -57.5,193.8 -103.6,216.8 -46,21.1 -99.8,13.4 -99.8,-17.3 0,-9.6 -15.3,-49.9 -32.6,-90.2 -17.3,-38.4 -49.9,-122.8 -72.9,-186.1 l -38.4,-115.1 -90.2,-5.8 c -51.8,-3.8 -92.1,-13.4 -92.1,-23 0,-9.6 21.1,-40.3 46,-71 55.6,-65.2 34.5,-109.3 -55.6,-113.2 -30.7,-1.9 -76.7,-9.6 -101.7,-17.3 -40.3,-13.4 -44.1,-9.6 -30.7,40.3 5.8,30.7 28.8,88.3 49.9,130.4 19.2,40.3 32.6,76.7 28.8,80.6 -11.5,13.4 -178.4,-103.6 -245.6,-172.7 -34.5,-36.5 -107.4,-97.8 -161.1,-138.1 -111.3,-80.6 -184.2,-191.8 -201.4,-310.8 -13.4,-82.5 -13.4,-82.5 124.7,-220.6 l 140,-138.1 -17.3,-101.7 c -7.7,-55.6 -9.6,-115.1 -3.8,-130.5 23,-59.5 72.9,-15.3 111.3,94 30.7,88.2 57.6,126.6 132.4,184.2 124.7,99.8 136.2,122.8 94,195.7 l -34.5,57.6 59.5,51.8 c 44.1,36.5 69.1,82.5 86.3,153.5 32.6,130.5 51.8,145.8 147.7,118.9 57.6,-13.4 78.7,-32.6 88.3,-67.1 7.7,-30.7 24.9,-48 48,-48 53.7,0 61.4,-44.1 19.2,-107.4 -42.2,-65.2 -48,-134.3 -9.6,-147.7 40.3,-15.4 136.2,53.7 163.1,118.9 40.3,95.9 61.4,49.9 48,-103.6 -15.3,-163.1 -3.8,-224.5 53.7,-282 46,-46 55.6,-95.9 59.5,-312.7 3.8,-143.9 5.8,-153.5 48,-159.2 34.5,-5.8 42.2,-19.2 42.2,-78.7 0,-119 -105.5,-166.9 -168.8,-76.7 -15.4,23 -48,36.5 -84.4,36.5 -67.1,0 -67.1,1.9 67.1,161.1 40.3,48 69.1,94 63.3,103.6 -5.8,11.5 -67.1,-11.5 -134.3,-46 -117,-63.3 -126.6,-65.2 -209.1,-44.1 -46,13.4 -99.8,17.3 -120.9,9.6 -36.5,-13.4 -36.5,-15.4 0,-40.3 19.2,-15.3 46,-30.7 57.6,-34.5 15.4,-5.8 13.4,-19.2 -1.9,-48 -23,-36.5 -17.3,-46 61.4,-92.1 103.6,-59.5 119,-130.4 34.5,-151.6 -30.7,-5.8 -90.2,-28.8 -136.2,-51.8 -61.4,-28.8 -88.2,-34.5 -105.5,-17.3 -11.5,11.5 -53.7,21.1 -95.9,21.1 -71,0 -74.8,-3.8 -120.9,-105.5 -42.2,-92.1 -55.6,-105.5 -103.6,-105.5 -40.3,0 -69.1,-17.3 -101.7,-61.4 C 2345.1,828.9 2276,696.5 2276,650.5 c 0,-61.4 -11.5,-74.8 -145.8,-165 -122.8,-82.5 -180.3,-149.6 -180.3,-212.9 0,-19.2 17.3,-72.9 38.4,-119 44.1,-97.9 51.8,-209.1 13.4,-209.1 -36.5,0 -101.7,95.9 -130.5,189.9 -15.3,53.7 -40.3,88.3 -67.1,97.8 -23,9.6 -48,26.9 -55.6,36.4 -5.8,11.5 -42.2,21.1 -76.7,21.1 -48,0 -74.8,-11.5 -95.9,-44.1 -26.9,-42.2 -38.4,-46 -168.8,-36.5 -176.5,9.6 -224.5,-21.1 -270.5,-184.2 -69.1,-247.5 -24.9,-433.6 115.1,-481.5 113.2,-40.3 178.4,-17.3 212.9,74.8 24.9,59.5 42.2,76.7 103.6,92.1 l 74.8,19.2 v -71 c 0,-38.4 -17.3,-94 -38.4,-126.6 -72.9,-111.3 -49.9,-138.1 134.3,-147.7 l 86.3,-5.7 9.6,-138.1 c 13.4,-189.9 30.7,-205.3 241.7,-207.2 l 163.1,-3.8 80.6,88.3 c 78.7,88.2 82.5,88.2 147.7,65.2 36.5,-11.5 82.5,-23 99.8,-23 17.3,-1.9 46,-21.1 61.4,-42.2 24.9,-38.4 40.3,-40.3 157.3,-30.7 86.3,5.8 138.1,19.2 151.6,40.3 26.9,34.5 48,21.1 48,-28.8 0,-86.3 214.9,-247.5 330,-247.5 71,0 218.7,-136.2 234,-214.9 11.5,-57.5 28.8,-71 184.2,-143.9 109.4,-51.8 199.5,-82.5 245.6,-82.5 132.4,0 368.3,-153.5 368.3,-237.9 0,-15.4 -17.3,-65.2 -38.4,-115.1 -30.7,-67.1 -44.1,-159.2 -59.5,-379.9 -21.1,-310.8 -32.6,-341.5 -122.8,-341.5 -23,0 -57.6,-17.3 -76.7,-38.4 -19.1,-21.1 -49.9,-42.2 -69.1,-48 -42.2,-13.4 -69.1,-95.9 -40.3,-130.5 24.9,-30.7 -15.3,-259 -49.9,-280.1 -17.3,-11.5 -19.2,-28.8 -5.8,-65.2 17.3,-42.2 13.4,-55.6 -28.8,-88.3 -26.9,-21.1 -57.6,-40.3 -69.1,-44.1 -15.3,-5.8 -15.3,-19.2 1.9,-48 44.1,-84.4 7.7,-197.6 -65.2,-197.6 -24.9,0 -30.7,-11.5 -24.9,-48 7.7,-36.5 1.9,-48 -24.9,-48 -51.8,0 -44.1,-48 11.5,-72.9 48,-21.1 59.5,-44.1 36.5,-67.1 -5.8,-5.8 -15.3,-55.6 -19.2,-107.5 -7.7,-86.3 -1.9,-99.7 38.4,-126.6 36.4,-24.9 49.9,-55.6 61.4,-136.2 9.6,-82.5 28.8,-126.6 86.3,-201.4 82.5,-103.6 74.8,-109.4 -76.7,-65.2 -82.5,24.9 -111.3,46.1 -166.9,124.7 -38.4,53.7 -76.7,95.9 -84.4,95.9 -9.6,0 -21.1,17.3 -28.8,36.5 -5.8,21.1 -36.5,69.1 -67.1,107.4 -40.3,51.8 -53.7,84.4 -46,117 9.6,34.6 0,49.9 -46,72.9 -55.6,28.8 -111.3,132.4 -88.2,166.9 11.5,19.2 -38.4,119 -90.2,188 -24.9,30.7 -36.4,76.7 -36.4,138.1 0,65.2 -19.2,126.6 -65.2,222.5 -36.5,71 -84.4,209.1 -107.4,303.1 -80.6,343.4 -145.8,447 -358.8,567.9 -138.1,78.6 -247.5,176.5 -310.8,278.2 -28.8,42.2 -84.4,107.4 -124.7,142 -69.1,61.4 -72.9,69.1 -61.4,153.5 7.7,59.5 1.9,118.9 -17.3,172.7 -28.8,80.6 -28.8,86.3 19.2,157.3 72.9,111.3 86.3,157.3 65.2,232.1 -17.3,63.3 -101.7,166.9 -134.3,166.9 -9.6,0 -17.3,-17.3 -17.3,-38.4 0,-36.4 -11.5,-32.6 -143.9,34.5 -109.4,53.7 -163.1,95.9 -216.8,166.9 -57.6,74.8 -95.9,103.6 -205.3,147.7 -72.9,30.7 -189.9,69.1 -255.2,84.4 -182.3,42.2 -285.9,80.6 -387.5,143.9 -76.7,48 -92.1,67.1 -103.6,132.4 -5.8,42.2 -51.8,138.1 -99.8,214.9 -48,77.1 -120.9,196 -161.2,265.1 -134.3,228.2 -136.2,145.8 -3.9,-167 57.6,-136.2 57.6,-189.9 -1.9,-124.7 -61.4,71 -153.5,245.6 -151.6,289.7 1.9,24.9 -3.8,55.6 -13.4,67.1 -71,84.4 -57.5,408.6 36.5,878.7 147.7,732.8 470,1427.3 938.1,2016.3 132.4,166.9 481.5,533.3 562.1,590.9 l 51.8,38.4 28.8,-67.1 c 28.8,-67.1 90.2,-117 132.4,-101.7 13.4,3.8 21.1,34.5 17.3,74.8 -5.8,53.7 3.8,72.9 40.3,97.8 49.9,32.6 82.5,157.3 51.8,195.7 -11.5,13.4 34.5,55.6 140,128.5 166.9,115.1 178.4,120.9 224.4,92.1 z m 5168.3,-86.3 c 36.4,-26.9 36.4,-30.7 3.8,-101.7 -26.8,-59.5 -30.7,-99.8 -21.1,-186.1 24.9,-188 128.5,-266.7 401,-307 105.5,-17.3 115.1,7.7 40.3,117 -26.9,38.4 -48,95.9 -48,128.5 0,57.5 0,57.5 44.1,21.1 138.1,-115.1 272.4,-257.1 303.1,-324.2 21.1,-44.1 36.5,-61.4 36.5,-40.3 0,28.8 5.8,30.7 28.8,11.5 15.3,-13.4 28.8,-36.5 28.8,-49.9 0,-15.3 7.7,-24.9 17.3,-23 24.9,7.7 253.2,-270.5 402.9,-493 510.3,-750.1 782.7,-1578.9 821.1,-2494 11.5,-293.5 -15.3,-742.4 -51.8,-867.1 l -13.4,-53.7 -11.5,48 c -5.8,26.9 -11.5,61.4 -9.6,76.7 0,15.3 -19.2,76.7 -42.2,134.3 -24.9,57.6 -57.5,138.1 -72.9,178.4 -30.7,76.7 -71,109.4 -136.2,109.4 -26.8,0 -40.3,11.5 -40.3,36.5 0,55.6 -65.2,122.8 -174.6,184.2 -92.1,49.9 -119,53.7 -268.6,51.8 -122.8,-3.8 -172.7,3.8 -188,23 -13.4,15.4 -59.5,26.9 -115.1,26.9 -107.4,1.9 -207.2,38.4 -259,97.8 -21.1,21.1 -48,40.3 -61.4,40.3 -49.9,0 13.4,-117 90.1,-166.9 42.2,-26.9 74.8,-61.4 74.8,-76.7 0,-42.2 44.1,-48 120.8,-15.3 99.8,40.3 122.8,36.5 157.3,-28.8 17.3,-32.6 51.8,-67.1 76.7,-76.7 101.7,-38.4 23,-222.5 -147.7,-345.3 -142,-103.6 -406.7,-245.6 -479.6,-259 -38.4,-7.7 -84.4,-24.9 -103.6,-36.4 -26.9,-21.1 -28.8,-28.8 -5.8,-67.1 23,-34.5 36.5,-40.3 84.4,-28.8 32.6,7.7 90.2,15.3 130.4,17.3 38.4,1.9 88.3,19.2 105.5,36.5 90.2,80.6 82.5,-80.6 -11.5,-220.6 -157.3,-239.8 -191.8,-283.9 -353,-454.7 -92.1,-97.8 -174.6,-201.4 -182.2,-228.3 -5.8,-28.8 -1.9,-111.3 9.6,-182.3 30.7,-172.7 28.8,-274.3 -3.8,-337.6 -15.4,-28.8 -84.4,-105.5 -155.4,-170.8 -109.4,-101.7 -126.6,-126.6 -115.1,-163.1 36.5,-120.9 32.6,-138.1 -46.1,-216.8 -44.1,-40.3 -78.6,-92.1 -78.6,-111.3 0,-46.1 -178.4,-287.8 -245.6,-335.7 -72.9,-49.9 -228.3,-99.8 -312.7,-99.8 -78.7,0 -113.2,36.5 -113.2,118.9 0,24.9 -23,92.1 -49.9,149.6 -26.9,57.6 -67.1,178.4 -88.3,268.6 -21.1,90.2 -55.6,203.4 -76.7,255.1 -49.9,113.2 -40.3,251.3 23,339.6 36.5,49.9 40.3,69.1 21.1,107.4 -11.5,26.8 -15.3,80.6 -9.6,120.9 11.5,67.1 3.8,84.4 -86.3,195.7 -109.3,134.3 -143.9,224.4 -115.1,299.3 19.2,53.7 23,142 5.8,186.1 -7.7,19.2 -34.5,30.7 -78.7,30.7 -36.4,0 -103.6,23 -151.6,49.9 l -84.4,49.9 -69.1,-44.1 c -61.4,-36.5 -101.7,-44.1 -287.8,-48 l -216.8,-5.8 -46.1,55.6 c -24.9,28.8 -67.1,57.6 -92.1,61.4 -32.6,3.8 -57.6,28.8 -82.5,84.4 -19.2,42.2 -65.2,97.8 -99.8,122.8 -80.6,53.7 -99.8,122.8 -88.3,316.5 3.8,84.4 0,184.2 -11.5,222.6 -17.3,61.4 -9.6,84.4 61.4,220.6 55.6,105.5 101.7,168.8 157.3,209.1 53.7,38.4 84.4,76.7 92.1,117 7.7,32.6 51.8,109.3 97.8,170.7 103.6,132.4 111.3,199.5 34.5,257.1 -107.4,80.6 -107.4,80.6 -95.9,180.3 7.7,51.8 26.9,124.7 46.1,163.1 34.5,69.1 38.4,71 166.9,82.5 97.8,7.7 140,21.1 157.3,46 48,65.2 32.6,120.9 -49.9,174.6 -92.1,61.4 -97.8,84.4 -17.2,84.4 55.6,0 120.8,40.3 214.8,130.4 21.1,19.2 32.6,49.9 26.9,76.7 -5.8,32.6 3.8,49.9 42.2,71 28.8,13.4 92.1,69.1 142,122.8 80.6,84.4 90.2,105.5 90.2,182.3 0,48 9.6,92.1 19.2,97.8 11.5,7.7 19.2,-19.2 19.2,-65.2 0,-53.7 13.4,-92.1 38.4,-117 46.1,-46 53.7,-46 232.1,-7.7 161.2,34.5 209.1,74.8 209.1,170.7 0,55.6 7.7,65.2 53.7,71 40.3,3.8 49.9,15.3 46,44.1 -19.2,115.1 -19.2,115.1 78.7,117 95.9,1.9 151.6,30.7 117,65.2 -9.6,9.6 -72.9,24.9 -138.1,30.7 -209.1,23 -253.2,94 -174.6,276.3 44.1,103.6 42.2,159.2 -5.8,168.8 -34.5,5.8 -124.7,-161.1 -168.8,-316.5 -21.1,-71 -21.1,-86.3 17.3,-145.8 48,-78.7 49.9,-105.5 7.7,-151.6 -17.3,-19.2 -46,-76.7 -61.4,-126.6 -26.8,-80.6 -38.4,-90.2 -92.1,-95.9 -51.8,-5.8 -61.4,0 -51.8,24.9 13.4,32.6 -63.3,220.6 -88.2,220.6 -7.7,0 -24.9,-13.4 -38.4,-30.7 -36.5,-42.2 -88.2,-67.1 -120.9,-53.7 -38.4,13.4 -90.2,145.8 -90.2,228.3 0,71 23,99.8 134.3,168.8 42.2,26.9 86.3,80.6 117,145.8 46.1,92.1 63.3,155.4 103.6,358.8 17.3,90.2 257.1,266.7 370.3,272.4 109.4,7.7 157.3,-9.6 157.3,-51.8 0,-40.3 65.2,-71 191.8,-88.2 118.9,-17.3 165,-51.8 220.6,-163.1 57.5,-113.2 118.9,-134.3 95.9,-32.6 -26.9,111.3 -21.1,174.6 13.4,182.3 23,3.8 40.3,-11.5 53.7,-42.2 24.9,-67.1 44.1,-63.3 142,26.9 57.5,53.7 88.2,69.1 101.7,55.6 15.4,-15.3 32.6,-15.3 59.5,0 21.1,11.5 57.6,21.1 80.6,21.1 32.6,0 40.3,9.6 34.5,53.7 -5.8,49.9 -9.6,51.8 -115.1,51.8 -61.4,0 -118.9,9.6 -132.4,24.9 -13.4,11.5 -44.1,23 -69.1,23 -55.6,0 -90.2,78.7 -74.8,174.6 5.8,36.5 1.9,118.9 -7.7,180.3 -15.3,94 -13.4,126.6 15.3,186.1 37.1,78.7 52.4,86.4 108,44.2 z m -2434.5,-1168.3 134.3,-1.9 -1.9,-72.9 c -3.8,-132.4 -107.5,-199.5 -247.5,-165 -80.6,21.1 -84.4,24.9 -103.6,115.1 -25,115.1 -11.5,159.2 44.1,142 21.1,-7.8 101.7,-15.4 174.6,-17.3 z m 541,-700.3 c 13.4,-40.3 15.3,-61.4 0,-76.7 -15.3,-15.4 -1.9,-46 40.3,-105.5 34.5,-46 61.4,-90.2 61.4,-97.8 0,-7.6 15.4,-32.6 34.5,-57.6 38.4,-48 42.2,-151.6 7.7,-155.4 -13.4,-1.9 -40.3,-3.8 -61.4,-5.8 -19.2,0 -67.1,-32.6 -103.6,-69.1 -99.8,-99.8 -115.1,-90.2 -101.7,61.4 9.6,88.2 25,140 51.8,168.8 51.8,55.6 48,80.6 -19.2,138.1 -65.2,53.7 -76.7,142 -26.8,212.9 40.3,59.6 90.2,53.9 117,-13.3 z m -165,-216.8 c 7.7,-107.4 -9.6,-182.3 -51.8,-226.4 -69.1,-71 -113.2,-36.5 -115.1,92.1 -1.9,95.9 0,99.8 67.1,126.6 86.4,36.5 97.9,36.5 99.8,7.7 z M 2130.2,50 c -7.7,-15.3 -19.2,-28.8 -28.8,-28.8 -9.6,0 -17.3,13.4 -17.3,28.8 0,15.4 13.4,28.8 28.8,28.8 17.3,0 23.1,-11.5 17.3,-28.8 z m -32.6,-166.9 c -5.8,-13.4 -9.6,-3.8 -9.6,23 0,26.9 3.8,36.5 9.6,24.9 3.8,-13.4 3.8,-36.4 0,-47.9 z m 142,-11.5 c 28.8,-72.9 7.7,-71 -36.5,3.8 -30.7,51.8 -32.6,65.2 -11.5,55.6 17.3,-5.7 38.4,-32.5 48,-59.4 z M 2066.9,-232 c 67.1,-34.5 143.9,-71 168.8,-82.5 86.3,-34.5 71,-67.1 -32.6,-67.1 -71,0 -101.7,9.6 -130.5,40.3 -57.6,63.3 -132.4,94 -228.3,94 -99.8,0 -101.7,26.9 -3.8,55.6 92.1,26.8 94,26.8 226.4,-40.3 z m 483.5,-191.9 42.2,-44.1 -95.9,-13.4 c -140,-17.3 -188,-17.3 -220.6,3.8 -24.9,17.3 -23,24.9 17.3,57.6 63.2,55.6 199.4,51.8 257,-3.9 z m 176.5,-34.5 c 5.8,-9.6 5.8,-19.2 -3.8,-19.2 -7.7,0 -36.5,-5.8 -63.3,-11.5 -46,-9.6 -46,-9.6 -11.5,19.2 44,36.5 61.3,38.4 78.6,11.5 z m -566,-36.4 c 0,-21.1 -49.9,-42.2 -65.2,-26.9 -23,23 -9.6,44.1 26.9,44.1 21.1,0 38.3,-7.6 38.3,-17.2 z m 786.6,-99.8 c 0,-34.5 -3.8,-36.5 -28.8,-17.3 -28.8,23 -23,57.5 11.5,57.5 9.6,0.1 17.3,-19.1 17.3,-40.2 z m 1561.6,-1139.6 c 5.8,-17.3 0,-28.8 -17.3,-28.8 -15.3,0 -28.8,13.4 -28.8,28.8 0,15.4 7.7,28.8 17.3,28.8 9.6,0 21.1,-13.4 28.8,-28.8 z M 8330.6,-2043 c -11.5,-101.7 -165,-527.6 -207.2,-579.4 -32.6,-38.4 -113.2,-19.2 -155.4,38.4 -38.4,49.9 -38.4,49.9 0,115.1 21.1,34.5 53.7,103.6 72.9,155.4 21.1,55.6 46.1,90.2 65.2,92.1 30.7,0 109.3,97.8 184.2,224.4 21.1,32.6 40.3,61.4 46,61.4 3.9,0 2,-48 -5.7,-107.4 z m -4163,-2281.1 c -36.5,-26.9 -69.1,-23 -69.1,11.5 0,9.6 23,17.3 53.7,17.3 49.9,-1.9 49.9,-1.9 15.4,-28.8 z"
           id="path4661"
           style="fill:#6dcff7;fill-opacity:1" />
        <path
           inkscape:connector-curvature="0"
           d="m 3805,4483.6 c -5.8,-15.4 0,-36.5 13.4,-48 21.1,-17.3 28.8,-11.5 34.5,26.9 11.6,51.8 -30.6,69 -47.9,21.1 z"
           id="path4663"
           style="fill:#6dcff7;fill-opacity:1" />
        <path
           inkscape:connector-curvature="0"
           d="m 1547,3321 c 0,-48 7.7,-57.6 44.1,-57.6 63.3,0 72.9,17.3 38.4,69.1 -42.2,65.2 -82.5,59.5 -82.5,-11.5 z"
           id="path4665"
           style="fill:#6dcff7;fill-opacity:1" />
        <path
           inkscape:connector-curvature="0"
           d="m 1944.1,1471.6 c -26.9,-21.1 -28.8,-28.8 -7.7,-36.4 28.8,-9.6 71,19.2 71,48 0,22.9 -23,17.2 -63.3,-11.6 z"
           id="path4667"
           style="fill:#6dcff7;fill-opacity:1" />
        <path
           inkscape:connector-curvature="0"
           d="m 1830.9,1465.8 c -19.2,-3.8 -34.5,-17.3 -34.5,-26.9 0,-26.9 30.7,-21.1 57.6,11.5 13.4,15.3 21.1,26.9 17.3,26.9 -3.9,-1.9 -23.1,-5.7 -40.4,-11.5 z"
           id="path4669"
           style="fill:#6dcff7;fill-opacity:1" />
        <path
           inkscape:connector-curvature="0"
           d="m 2063.1,1350.7 c -5.8,-42.2 7.7,-132.4 19.2,-145.8 23,-23 55.6,26.9 63.3,92.1 3.8,48 -1.9,59.5 -36.5,63.3 -24.9,3.9 -44.1,0 -46,-9.6 z"
           id="path4671"
           style="fill:#6dcff7;fill-opacity:1" />
        <path
           inkscape:connector-curvature="0"
           d="m 1854,1180 c -11.5,-26.9 -19.2,-67.1 -19.2,-88.2 0,-65.2 51.8,-5.8 61.4,71 9.6,78.6 -15.4,88.2 -42.2,17.2 z"
           id="path4673"
           style="fill:#6dcff7;fill-opacity:1" />
        <path
           inkscape:connector-curvature="0"
           d="m 7283.2,2991 c -36.5,-9.6 -72.9,-28.8 -80.6,-40.3 -23,-34.5 1.9,-132.4 44.1,-174.6 46,-49.9 69.1,-24.9 36.5,36.4 -19.2,38.4 -21.1,53.7 -3.8,71 17.3,17.3 28.8,17.3 46,0 15.4,-15.4 26.8,-9.6 48,28.8 51.8,99.8 34.5,115.2 -90.2,78.7 z"
           id="path4675"
           style="fill:#6dcff7;fill-opacity:1" />
        <path
           inkscape:connector-curvature="0"
           d="m 7505.7,1446.6 c -7.7,-17.3 0,-44.1 17.3,-63.3 38.4,-42.2 36.5,-63.3 -5.8,-101.7 -46,-42.2 -130.4,-42.2 -155.4,1.9 -23,38.4 -65.2,19.2 -122.8,-57.6 -28.8,-38.4 -32.6,-57.6 -15.3,-88.2 17.3,-32.6 30.7,-36.5 76.7,-23 28.8,7.7 72.9,24.9 97.8,38.4 34.5,19.2 57.6,15.3 134.3,-17.3 157.3,-67.1 268.6,-48 268.6,48 0,28.8 -19.2,49.9 -57.5,65.2 -92.1,38.4 -149.6,92.1 -163.1,151.6 -13.4,65.2 -57.5,90.2 -74.8,46 z"
           id="path4677"
           style="fill:#6dcff7;fill-opacity:1" />
        <path
           inkscape:connector-curvature="0"
           d="m 6513.9,1233.7 c 26.8,-49.9 80.6,-92.1 161.1,-124.7 128.5,-55.6 61.4,48 -80.6,120.9 -93.9,47.9 -103.5,47.9 -80.5,3.8 z"
           id="path4679"
           style="fill:#6dcff7;fill-opacity:1" />
        <path
           inkscape:connector-curvature="0"
           d="m 6304.8,1093.6 c 0,-13.4 -38.4,-19.2 -109.4,-13.4 -105.5,5.8 -111.3,3.8 -182.3,-71 -40.3,-42.2 -80.6,-107.4 -92.1,-145.8 -21.1,-78.7 -67.1,-124.7 -168.8,-172.7 -42.2,-19.2 -57.6,-34.5 -36.5,-34.5 19.2,-1.9 88.3,24.9 153.5,59.5 107.5,53.7 140,61.4 335.7,69.1 153.5,5.8 224.5,1.9 239.8,-13.4 13.4,-13.4 23,-67.1 23,-122.8 v -99.8 l 67.1,-5.8 c 36.5,-3.8 88.2,-26.9 115.1,-49.9 71,-65.2 140,-107.4 172.7,-107.4 23,0 28.8,17.3 23,76.7 -5.8,55.6 0,78.7 21.1,88.3 17.3,5.8 111.3,-11.5 211,-38.4 218.7,-59.5 280.1,-61.4 379.8,-11.5 120.9,63.3 151.6,103.6 151.6,201.4 0,48 -3.8,86.3 -9.6,86.3 -3.8,0 -51.8,-17.3 -107.4,-38.4 -122.8,-48 -209.1,-36.4 -310.8,46 -51.8,40.3 -80.6,82.5 -95.9,140.1 -23,88.2 -42.2,97.8 -97.9,57.6 -34.5,-24.9 -34.5,-28.8 -3.8,-53.7 92.1,-74.8 103.6,-92.1 94,-130.5 -7.7,-32.6 -24.9,-40.3 -94,-40.3 -46.1,0 -84.4,7.7 -84.4,19.2 0,30.7 -117,153.5 -145.8,153.5 -15.4,0 -26.9,-15.3 -26.9,-32.6 0,-55.6 -97.8,-178.4 -142,-178.4 -90.2,0 -122.8,101.7 -40.3,122.8 38.4,9.6 48,24.9 48,69.1 0,44.2 -13.4,63.3 -61.4,88.3 -34.5,17.3 -84.4,48 -109.4,67.1 -49.6,40.3 -116.7,48 -116.7,15.3 z m 57.5,-124.7 c 0,-74.8 -24.9,-95.9 -65.2,-53.7 -36.4,34.5 -38.4,72.9 -9.6,124.7 28.8,55.7 74.8,11.5 74.8,-71 z"
           id="path4681"
           style="fill:#6dcff7;fill-opacity:1" />
        <path
           inkscape:connector-curvature="0"
           d="m 7578.6,243.8 c -13.4,-55.6 28.8,-159.2 103.6,-255.2 30.7,-40.3 80.6,-138.1 109.4,-216.8 74.8,-205.3 239.8,-370.3 239.8,-239.8 0,63.3 -44.1,166.9 -103.6,245.6 -26.8,36.5 -59.5,92.1 -71,126.6 -13.4,34.5 -51.8,105.5 -86.3,159.2 -36.5,51.8 -65.2,107.4 -65.2,118.9 0,24.9 -78.7,107.4 -101.7,107.4 -7.7,0.1 -17.3,-21 -25,-45.9 z"
           id="path4683"
           style="fill:#6dcff7;fill-opacity:1" />
      </g>
    </g>
  </g>
  <g
     inkscape:groupmode="layer"
     id="layer3"
     inkscape:label="Layer 3"
     transform="translate(-25.193131,-65.536431)"
     style="display:inline">
    <g
       aria-label="GLOBAL"
       transform="rotate(-81.006038,106.0456,135.59085)"
       inkscape:transform-center-x="7.5844258"
       inkscape:transform-center-y="-38.944577"
       style="font-style:normal;font-variant:normal;font-weight:normal;font-stretch:normal;font-size:32.45555496px;line-height:1.25;font-family:Dyuthi;-inkscape-font-specification:'Dyuthi, Normal';font-variant-ligatures:normal;font-variant-caps:normal;font-variant-numeric:normal;font-feature-settings:normal;text-align:start;letter-spacing:0px;word-spacing:0px;writing-mode:lr-tb;text-anchor:start;fill:#000000;fill-opacity:1;stroke:none;stroke-width:0.59999859"
       id="text4785">
      <path
         d="m 122.62671,78.753961 q -0.86728,-0.188173 -1.5262,0.382372 -0.79086,0.655433 -0.69544,1.859916 l -0.007,0.03097 q 0.0585,1.374841 1.23796,1.095623 l 0.99569,-0.254233 q 0.37768,-0.09643 0.6829,0.440059 0.28023,0.352692 0.16935,0.863767 l -0.4906,2.261116 q -0.11089,0.511074 -0.69515,0.887007 -0.58427,0.375933 -1.2657,0.228083 -0.37169,-0.08064 -0.61949,-0.134409 -2.69475,-0.58468 -4.19702,-2.629539 -1.62017,-2.24882 -1.29936,-4.773799 0.3664,-3.034007 2.82459,-4.72227 1.71642,-1.184341 5.14594,-0.0997 l 4.22681,1.371142 q 1.30837,0.397389 2.16496,-0.859994 l 0.0377,-0.02425 q 0.7758,-1.258698 0.2932,-2.547186 -0.2817,-0.644902 -0.94969,-0.8547 -3.33119,-1.014658 -4.46174,-1.259955 -4.84747,-1.051751 -8.53497,0.921137 -3.88475,2.059822 -4.95403,6.838615 -0.89309,4.265672 1.25263,7.455544 2.27912,3.397193 7.45181,4.519509 1.53323,0.332663 3.62047,0.428776 0.51239,0.03009 1.0746,0.05478 1.10017,0.01168 1.9442,-0.664651 0.86625,-0.70394 1.12908,-1.765829 l 1.26008,-5.807662 q 0.20235,-0.783121 -0.2497,-1.464985 -0.43321,-0.693991 -1.22977,-0.834389 z"
         style="font-style:normal;font-variant:normal;font-weight:normal;font-stretch:normal;font-size:32.45555496px;font-family:Dyuthi;-inkscape-font-specification:'Dyuthi, Normal';font-variant-ligatures:normal;font-variant-caps:normal;font-variant-numeric:normal;font-feature-settings:normal;text-align:start;writing-mode:lr-tb;text-anchor:start;fill:#000000;stroke-width:0.59999859"
         id="path5185" />
      <path
         d="m 141.24508,77.587748 q 1.01406,0.678744 1.24518,1.672506 0.22241,0.949794 -0.3461,1.770667 l -7.87518,11.281402 5.83043,3.540165 q 0.63661,0.387959 0.7714,1.183756 0.13924,0.760643 -0.27505,1.379616 l -0.0176,0.02634 q -0.56862,0.878011 -1.34689,1.043599 -0.72549,0.143708 -1.3708,-0.28822 l -7.57255,-5.068543 q -0.76384,-0.511261 -0.9512,-1.399456 -0.17419,-0.87938 0.34589,-1.65639 l 8.49752,-12.69554 q 0.52008,-0.77701 1.50502,-0.99496 0.94098,-0.20924 1.52045,0.178613 z"
         style="font-style:normal;font-variant:normal;font-weight:normal;font-stretch:normal;font-size:32.45555496px;font-family:Dyuthi;-inkscape-font-specification:'Dyuthi, Normal';font-variant-ligatures:normal;font-variant-caps:normal;font-variant-numeric:normal;font-feature-settings:normal;text-align:start;writing-mode:lr-tb;text-anchor:start;fill:#000000;stroke-width:0.59999859"
         id="path5187" />
      <path
         d="m 148.12719,104.95202 q 0.73842,-2.35706 4.9588,-5.197217 2.13854,-1.448862 4.56625,-1.255999 2.39257,0.197521 3.56588,1.929346 1.06665,1.57439 0.41627,3.94837 -0.65039,2.37398 -2.81518,3.84062 -4.26396,2.88884 -6.70987,2.6126 -2.44591,-0.27624 -3.56589,-1.92935 -1.11998,-1.65311 -0.41626,-3.94837 z m 15.29508,-6.017174 q -0.12444,-0.183678 -0.4347,-0.528601 -2.44859,-2.992584 -6.21207,-3.716115 -3.86929,-0.766696 -7.62158,1.77548 -3.46365,2.346624 -4.23757,5.83796 -0.77391,3.49134 1.36959,7.41802 0.10328,0.29373 0.18751,0.3898 0.0398,0.0305 0.0622,0.0918 l 0.15111,0.22303 q 0.0136,0.0482 0.0622,0.0918 0.11936,0.0914 0.29248,0.31869 2.64966,3.43062 6.38139,4.02253 3.57766,0.56228 6.99307,-1.77079 3.73494,-2.51128 4.47497,-6.41993 0.70323,-3.53916 -1.14779,-7.147163 -0.18752,-0.389792 -0.32085,-0.586591 z"
         style="font-style:normal;font-variant:normal;font-weight:normal;font-stretch:normal;font-size:32.45555496px;font-family:Dyuthi;-inkscape-font-specification:'Dyuthi, Normal';font-variant-ligatures:normal;font-variant-caps:normal;font-variant-numeric:normal;font-feature-settings:normal;text-align:start;writing-mode:lr-tb;text-anchor:start;fill:#000000;stroke-width:0.59999859"
         id="path5189" />
      <path
         d="m 156.15034,126.51132 q -0.12673,-0.84692 -0.19105,-1.18958 -0.0497,-0.26478 0.0895,-0.46827 0.13332,-0.23464 0.35138,-0.27557 l 4.85953,-0.91217 q 0.26478,-0.0497 0.47412,0.12062 0.20934,0.17032 0.25611,0.41953 l 0.18419,0.98125 q 0.35084,1.86905 -0.0179,3.08308 -0.39205,1.3474 -2.3234,1.70993 -1.69772,0.31868 -2.57701,-0.75784 -0.78387,-0.99768 -1.10546,-2.71098 z m 12.69456,-4.26939 q 0.54514,-0.10232 0.68447,0.46812 0.12082,0.55779 0.27673,1.30249 0.57011,3.03721 -2.09717,3.60237 -1.41152,0.2972 -2.1603,-0.51358 -0.73321,-0.8137 -1.05481,-2.52699 l -0.15495,-0.8255 q -0.04,-0.29886 0.0836,-0.49942 0.13917,-0.20349 0.35723,-0.24442 z m -4.03254,8.23857 q 0.20248,-0.038 0.3281,0.11578 1.71774,2.45093 4.16308,1.99192 2.67897,-0.50286 3.39785,-3.20154 0.64988,-2.12139 -0.0986,-6.36668 -0.3343,-1.95277 -0.36354,-2.10853 -0.24659,-1.48551 -0.3158,-1.94012 -0.13645,-0.81285 -0.82969,-1.32769 -0.67181,-0.48662 -1.51288,-0.32874 l -15.55985,2.92069 q -0.8878,0.16665 -1.31599,0.89199 -0.46031,0.81199 -0.27713,1.61607 0.64793,2.76461 0.66452,2.93886 1.14409,6.00919 3.08366,7.83801 2.01066,1.86385 4.42192,1.39512 3.4266,-0.6432 3.80069,-4.14788 0.0399,-0.21709 0.41368,-0.28726 z"
         style="font-style:normal;font-variant:normal;font-weight:normal;font-stretch:normal;font-size:32.45555496px;font-family:Dyuthi;-inkscape-font-specification:'Dyuthi, Normal';font-variant-ligatures:normal;font-variant-caps:normal;font-variant-numeric:normal;font-feature-settings:normal;text-align:start;writing-mode:lr-tb;text-anchor:start;fill:#000000;stroke-width:0.59999859"
         id="path5191" />
      <path
         d="m 161.77079,145.5436 6.43189,3.99169 -7.49145,1.04856 z m 7.18637,7.87488 q 1.20138,-0.16849 2.10791,-1.01432 0.90979,-0.86135 1.1217,-1.8694 l 0.0913,-0.43423 q 0.21517,-1.02356 -0.27406,-2.16281 -0.48923,-1.13925 -1.58311,-1.79024 l -12.65962,-7.56803 q -1.0351,-0.62244 -2.15884,-0.12995 -1.10498,0.48024 -1.34949,1.64338 l -0.0717,0.34118 q -0.18583,0.88399 0.13923,1.64866 0.29731,0.74264 1.01238,1.0387 l 3.64308,1.54315 -1.2356,5.87771 -4.01563,-0.002 q -0.70845,-0.0194 -1.29839,0.55294 -0.59566,0.52253 -0.74889,1.25143 l -0.0717,0.34118 q -0.24125,1.14763 0.59806,2.08518 0.81808,0.8845 2.00394,0.71275 z"
         style="font-style:normal;font-variant:normal;font-weight:normal;font-stretch:normal;font-size:32.45555496px;font-family:Dyuthi;-inkscape-font-specification:'Dyuthi, Normal';font-variant-ligatures:normal;font-variant-caps:normal;font-variant-numeric:normal;font-feature-settings:normal;text-align:start;writing-mode:lr-tb;text-anchor:start;fill:#000000;stroke-width:0.59999859"
         id="path5193" />
      <path
         d="m 164.69791,170.188 q -0.66952,1.02018 -1.66115,1.2603 -0.94774,0.23102 -1.77373,-0.33002 l -11.35237,-7.77253 -3.48713,5.8623 q -0.38217,0.64009 -1.17671,0.78209 -0.75935,0.14615 -1.38206,-0.26252 l -0.0265,-0.0174 q -0.88313,-0.56062 -1.05577,-1.33736 -0.15028,-0.72416 0.27578,-1.37336 l 4.99965,-7.61821 q 0.50431,-0.76845 1.39077,-0.96386 0.87776,-0.18216 1.65946,0.33085 l 12.77209,8.38203 q 0.78169,0.513 1.00857,1.49593 0.21776,0.93905 -0.16482,1.52201 z"
         style="font-style:normal;font-variant:normal;font-weight:normal;font-stretch:normal;font-size:32.45555496px;font-family:Dyuthi;-inkscape-font-specification:'Dyuthi, Normal';font-variant-ligatures:normal;font-variant-caps:normal;font-variant-numeric:normal;font-feature-settings:normal;text-align:start;writing-mode:lr-tb;text-anchor:start;fill:#000000;stroke-width:0.59999859"
         id="path5195" />
    </g>
    <g
       aria-label="UNION"
       transform="matrix(0.63099058,0.77579049,0.77579049,-0.63099058,-66.074405,139.11884)"
       inkscape:transform-center-x="-3.2382597"
       inkscape:transform-center-y="48.34207"
       style="font-style:normal;font-variant:normal;font-weight:normal;font-stretch:normal;font-size:32.45555496px;line-height:1.25;font-family:Dyuthi;-inkscape-font-specification:'Dyuthi, Normal';font-variant-ligatures:normal;font-variant-caps:normal;font-variant-numeric:normal;font-feature-settings:normal;text-align:start;letter-spacing:0px;word-spacing:0px;writing-mode:lr-tb;text-anchor:start;fill:#000000;fill-opacity:1;stroke:none;stroke-width:0.70257622"
       id="text4793">
      <g
         id="g4817"
         transform="translate(-0.16953488,0.72889824)">
        <path
           inkscape:connector-curvature="0"
           id="path4801"
           style="font-style:normal;font-variant:normal;font-weight:normal;font-stretch:normal;font-size:32.45555496px;font-family:Dyuthi;-inkscape-font-specification:'Dyuthi, Normal';font-variant-ligatures:normal;font-variant-caps:normal;font-variant-numeric:normal;font-feature-settings:normal;text-align:start;writing-mode:lr-tb;text-anchor:start;stroke-width:0.70257622"
           d="m 122.24764,77.824904 q 0.3967,-1.46881 -0.42188,-2.85942 -0.80721,-1.37128 -2.11123,-1.70894 l -0.10739,-0.0278 q -1.31937,-0.34163 -2.72134,0.45763 -1.42129,0.81062 -1.80716,2.36409 l -2.33112,9.38214 q -0.23834,0.92049 -1.05748,1.42867 -0.83446,0.50421 -1.7703,0.2619 l -0.0614,-0.0159 q -1.22334,-0.33314 -1.72755,-1.16761 -0.47751,-0.81118 -0.23122,-1.76236 l 2.25634,-8.71396 q 0.90571,-3.49786 3.97662,-5.30554 3.09023,-1.81905 6.57274,-0.91731 l 0.16876,0.0437 q 3.40978,0.86653 5.14473,3.90224 1.72755,3.00105 0.85361,6.37618 l -2.31194,8.92874 q -0.24629,0.95117 -1.05748,1.42867 -0.83447,0.50422 -2.04644,0.19039 l -0.0614,-0.0159 q -0.9472,-0.26163 -1.45141,-1.0961 -0.46955,-0.84186 -0.23121,-1.76235 z" />
        <path
           inkscape:connector-curvature="0"
           id="path4803"
           style="font-style:normal;font-variant:normal;font-weight:normal;font-stretch:normal;font-size:32.45555496px;font-family:Dyuthi;-inkscape-font-specification:'Dyuthi, Normal';font-variant-ligatures:normal;font-variant-caps:normal;font-variant-numeric:normal;font-feature-settings:normal;text-align:start;writing-mode:lr-tb;text-anchor:start;stroke-width:0.70257622"
           d="m 146.4264,89.471109 -12.51301,5.052476 q -1.94426,0.788892 -3.57474,-0.41786 l -0.0764,-0.05655 q -1.36298,-1.008768 -1.42911,-2.437821 0.1459,-1.981892 0.69271,-2.720713 l 8.25873,-11.158542 q 0.58452,-0.789767 1.51548,-0.928797 0.94371,-0.129602 1.95002,0.615197 l 0.051,0.03772 q 0.7388,0.546822 0.90331,1.496635 0.14897,0.997464 -0.42001,1.73958 l -6.79433,8.673837 14.04446,-4.963956 q 1.11952,-0.393814 2.11309,0.341572 l 1.12095,0.829638 q 0.78976,0.584524 0.90332,1.496635 0.14565,0.9753 -0.42001,1.73958 l -9.06952,12.25403 q -0.58452,0.78976 -1.54096,0.90994 -0.96255,0.15508 -1.94339,-0.57086 l -0.051,-0.0377 q -0.78976,-0.58452 -0.90993,-1.540964 -0.10464,-1.004089 0.44549,-1.720718 z" />
        <path
           id="path4805"
           style="font-style:normal;font-variant:normal;font-weight:normal;font-stretch:normal;font-size:32.45555496px;font-family:Dyuthi;-inkscape-font-specification:'Dyuthi, Normal';font-variant-ligatures:normal;font-variant-caps:normal;font-variant-numeric:normal;font-feature-settings:normal;text-align:start;writing-mode:lr-tb;text-anchor:start;stroke-width:0.70257622"
           d="m 148.30176,108.24508 q -0.76929,0.58538 -1.75906,0.46232 -0.94534,-0.11703 -1.54032,-0.89894 l -0.0288,-0.0378 q -0.59499,-0.78191 -0.47494,-1.74946 0.13266,-0.97715 0.91456,-1.57214 l 12.3466,-9.394975 q 0.79452,-0.60458 1.75906,-0.462326 0.97715,0.132657 1.57214,0.914566 l 0.0288,0.03783 q 0.5758,0.756687 0.44314,1.733836 -0.12005,0.967553 -0.91457,1.572133 z"
           inkscape:connector-curvature="0" />
        <path
           id="path4807"
           style="font-style:normal;font-variant:normal;font-weight:normal;font-stretch:normal;font-size:32.45555496px;font-family:Dyuthi;-inkscape-font-specification:'Dyuthi, Normal';font-variant-ligatures:normal;font-variant-caps:normal;font-variant-numeric:normal;font-feature-settings:normal;text-align:start;writing-mode:lr-tb;text-anchor:start;stroke-width:0.70257622"
           d="m 154.36818,116.07316 q 1.2914,-2.10553 6.07736,-3.82967 2.4275,-0.88307 4.73471,-0.10348 2.272,0.77553 2.98712,2.74136 0.65011,1.78712 -0.56005,3.93055 -1.21016,2.14343 -3.66745,3.03733 -4.84012,1.76071 -7.14462,0.89583 -2.30451,-0.86489 -2.98713,-2.74136 -0.68261,-1.87648 0.56006,-3.93056 z m 16.30115,-2.10194 q -0.0758,-0.2085 -0.29252,-0.61871 -1.64411,-3.49973 -5.11716,-5.11997 -3.56512,-1.68793 -7.82442,-0.13851 -3.93166,1.43024 -5.53434,4.62708 -1.60267,3.19685 -0.48244,7.52796 0.0285,0.31005 0.0867,0.42377 0.0311,0.0393 0.0379,0.10425 l 0.0921,0.25318 q 10e-4,0.0501 0.0379,0.10424 0.0934,0.11779 0.20585,0.38044 1.73217,3.97359 5.20655,5.45844 3.33222,1.41852 7.21379,-0.0104 4.23493,-1.52369 5.9066,-5.1335 1.5458,-3.26047 0.63141,-7.21115 -0.0867,-0.42377 -0.16797,-0.64716 z"
           inkscape:connector-curvature="0" />
        <path
           inkscape:connector-curvature="0"
           id="path4809"
           style="font-style:normal;font-variant:normal;font-weight:normal;font-stretch:normal;font-size:32.45555496px;font-family:Dyuthi;-inkscape-font-specification:'Dyuthi, Normal';font-variant-ligatures:normal;font-variant-caps:normal;font-variant-numeric:normal;font-feature-settings:normal;text-align:start;writing-mode:lr-tb;text-anchor:start;stroke-width:0.70257622"
           d="m 161.06312,137.61446 10.91355,7.93709 q 1.69899,1.23123 1.53908,3.25339 l -0.008,0.0948 q -0.13366,1.69041 -1.31074,2.50345 -1.75829,0.92607 -2.67457,0.85365 l -13.83916,-1.0943 q -0.9795,-0.0774 -1.59054,-0.79343 -0.60981,-0.73179 -0.51112,-1.97985 l 0.005,-0.0632 q 0.0724,-0.91628 0.79094,-1.55894 0.76713,-0.65471 1.69797,-0.56519 l 10.95596,1.16836 -11.64966,-9.28295 q -0.92702,-0.74097 -0.82958,-1.97321 l 0.10994,-1.39024 q 0.0774,-0.9795 0.79092,-1.55895 0.7501,-0.64015 1.69798,-0.56519 l 15.1978,1.20172 q 0.97949,0.0774 1.58804,0.82504 0.6414,0.73429 0.54525,1.95073 l -0.005,0.0632 q -0.0774,0.9795 -0.82504,1.58804 -0.79622,0.62061 -1.69546,0.53364 z" />
      </g>
    </g>
    <g
       aria-label="CONSUMER"
       style="font-style:normal;font-variant:normal;font-weight:normal;font-stretch:normal;font-size:34.7495842px;line-height:1.25;font-family:Dyuthi;-inkscape-font-specification:'Dyuthi, Normal';font-variant-ligatures:normal;font-variant-caps:normal;font-variant-numeric:normal;font-feature-settings:normal;text-align:start;letter-spacing:0px;word-spacing:0px;writing-mode:lr-tb;text-anchor:start;fill:#fdff80;fill-opacity:1;stroke:#000000;stroke-width:0.76899999;stroke-miterlimit:4;stroke-dasharray:none;stroke-opacity:1"
       id="text4789"
       inkscape:path-effect="#path-effect4960;#path-effect5139"
       transform="matrix(0.91745479,-0.15995342,0.15995342,0.91745479,-9.5885374,29.579675)">
      <path
         d="m 42.654813,143.45911 c -0.433684,-0.21245 -0.854969,-0.14342 -1.249645,0.1816 -0.613737,0.52986 -1.281219,0.77704 -2.02367,0.77522 -1.568446,-0.004 -3.131074,-1.05532 -4.737064,-2.59537 -1.613065,-1.55825 -2.843686,-3.22789 -3.350992,-5.40324 -0.510857,-2.19059 -0.132065,-4.22693 0.738257,-6.35942 0.855732,-2.06014 1.966524,-3.6603 3.601059,-4.28224 0.768897,-0.29256 1.589654,-0.29726 2.469455,0.0138 0.498906,0.18796 0.93819,0.1024 1.30368,-0.28136 0.01685,-0.0256 0.03368,-0.0513 0.05049,-0.0771 0.68161,-0.72671 0.888044,-1.91231 0.343096,-3.67857 -0.60157,-1.86877 -1.58322,-2.98141 -2.614005,-3.04246 -1.218105,-0.17015 -2.36039,0.0128 -3.421397,0.501 -0.339281,0.10276 -0.570778,0.22877 -0.694699,0.3709 -0.165136,0.0499 -0.368916,0.21762 -0.618483,0.49807 -2.328871,2.21505 -3.725885,5.59163 -4.811812,8.2714 -1.21765,3.03358 -2.234914,6.10378 -1.285086,9.57602 0.873816,3.19436 3.047539,5.35717 5.187785,7.38814 2.073546,1.91704 4.811228,4.43167 7.58046,5.4782 0.185889,0.11907 0.331828,0.19501 0.441086,0.22491 7.7e-5,2e-5 0.103747,0.0285 0.103824,0.0285 0.007,0.002 0.09684,0.0267 0.10381,0.0287 1.02e-4,3e-5 0.118518,0.0329 0.11862,0.033 7.9e-5,2e-5 0.103698,0.029 0.103777,0.029 0.108631,0.0305 0.253529,0.0346 0.433945,0.0108 0.966901,0.17276 1.860556,0.10828 2.702109,-0.24599 0.848914,-0.3437 1.303988,-1.74136 1.178514,-3.79896 -0.113935,-2.0287 -0.699055,-3.16467 -1.607472,-3.64375 1.3e-5,0 -0.04566,-7.7e-4 -0.04564,-7.7e-4 z"
         style="font-style:normal;font-variant:normal;font-weight:normal;font-stretch:normal;font-size:34.7495842px;font-family:Dyuthi;-inkscape-font-specification:'Dyuthi, Normal';font-variant-ligatures:normal;font-variant-caps:normal;font-variant-numeric:normal;font-feature-settings:normal;text-align:start;writing-mode:lr-tb;text-anchor:start;fill:#fdff80;fill-opacity:1;stroke:#000000;stroke-width:0.76899999;stroke-miterlimit:4;stroke-dasharray:none;stroke-opacity:1"
         id="path4943"
         inkscape:original-d="m 41.8876,143.28189 q -0.678703,-0.18664 -1.425276,0.11878 -1.153795,0.49206 -2.392427,0.49206 -2.663909,0 -4.530341,-2.10398 -1.849466,-2.10398 -1.849466,-5.07331 0,-2.98629 1.866433,-5.14117 1.849465,-2.10398 4.513374,-2.10398 1.238632,0 2.426362,0.54296 0.678703,0.32239 1.357406,0.10181 l 0.06787,-0.0339 q 1.289536,-0.42419 1.323471,-1.79856 0,-1.42528 -1.306503,-1.79856 -1.476179,-0.49206 -3.122033,-0.61083 -0.49206,-0.0679 -0.746573,-0.0339 -0.237546,-0.0339 -0.746573,0.0339 -4.767888,0.42418 -7.737212,3.27474 -3.088098,2.98629 -3.088098,7.80508 0,4.46247 2.714811,7.31302 2.918422,2.96933 8.110499,3.22384 0.322384,0.0509 0.509027,0.0509 h 0.118773 q 0.06787,0 0.118773,0 0.06787,0 0.13574,0 h 0.118773 q 0.186644,0 0.49206,-0.0509 1.645854,-0.0679 3.07113,-0.44116 1.459211,-0.37328 1.459211,-1.84946 0.01697,-1.49315 -1.408308,-1.91734 z"
         inkscape:connector-curvature="0" />
      <path
         d="m 52.305975,143.48645 c -0.56846,-1.43847 -1.156364,-3.40819 -1.635792,-5.3376 -0.507001,-2.04038 -0.912667,-4.08576 -1.231196,-6.68706 -0.322887,-2.59292 -0.124134,-5.26512 0.412651,-8.26986 0.543952,-3.01055 1.270078,-5.29051 2.723173,-5.85183 1.3178,-0.50906 2.898095,0.92331 4.476921,3.8118 1.541625,2.82042 2.354241,5.91476 2.599739,9.03539 0.454755,5.78059 0.260715,10.93095 -0.653336,14.09765 -0.919617,3.186 -1.979306,4.89035 -3.225322,4.59263 -1.24974,-0.29862 -2.297122,-2.4604 -3.466838,-5.39112 z m -2.169822,-34.91648 c -0.154379,0.091 -0.362071,0.31035 -0.626272,0.65468 -2.378925,2.44443 -3.176059,7.38053 -3.977061,12.11962 -0.827797,4.78303 -1.369154,8.94024 -0.747797,12.88467 0.570445,3.62125 2.184571,7.42716 3.932241,11.49979 1.766866,4.11737 3.793825,8.6593 6.394954,10.92354 0.173269,0.28547 0.297318,0.42779 0.375661,0.42073 0.03029,-0.0288 0.06365,-0.0138 0.09994,0.0453 -0.0012,-5.6e-4 0.243811,0.11066 0.242588,0.1101 0.02675,0.0551 0.06,0.0703 0.09984,0.0454 0.09083,-0.0873 0.222848,-0.11361 0.395545,-0.0789 2.677064,0.45971 4.818573,-3.06089 6.495057,-8.83466 1.546305,-5.34126 2.148223,-10.81189 1.885809,-15.87312 -0.259739,-5.40132 -1.525385,-11.13513 -4.419419,-16.38733 -2.697955,-4.96693 -6.061567,-8.06461 -9.377908,-7.69217 -0.350363,0.01 -0.608551,0.0653 -0.773175,0.16236 z"
         style="font-style:normal;font-variant:normal;font-weight:normal;font-stretch:normal;font-size:34.7495842px;font-family:Dyuthi;-inkscape-font-specification:'Dyuthi, Normal';font-variant-ligatures:normal;font-variant-caps:normal;font-variant-numeric:normal;font-feature-settings:normal;text-align:start;writing-mode:lr-tb;text-anchor:start;fill:#fdff80;fill-opacity:1;stroke:#000000;stroke-width:0.76899999;stroke-miterlimit:4;stroke-dasharray:none;stroke-opacity:1"
         id="path4945"
         inkscape:original-d="m 52.78078,142.99344 q -1.645854,-2.07004 -1.628887,-7.51663 0,-2.76571 1.628887,-4.80182 1.611919,-2.00218 3.851639,-2.00218 2.036108,0 3.749833,2.00218 1.713724,2.00217 1.713724,4.80182 0,5.51446 -1.713724,7.51663 -1.713725,2.00218 -3.851639,2.00218 -2.137914,0 -3.749833,-2.00218 z m 3.851639,-17.17118 q -0.237546,0 -0.729606,0.0679 -4.123119,0.37329 -7.024574,3.27474 -3.00326,2.96933 -3.00326,7.82205 0,4.47944 2.629973,7.26212 2.629974,2.78269 7.397861,3.24081 0.322384,0.0848 0.458125,0.0679 0.0509,-0.017 0.118773,0 h 0.288448 q 0.0509,0.017 0.118773,0 0.152708,-0.0509 0.458125,-0.0679 4.632146,-0.28845 7.39786,-3.24081 2.646941,-2.83358 2.629974,-7.26212 0.01697,-4.81879 -3.00326,-7.82205 -2.714811,-2.74874 -7.024574,-3.27474 -0.458125,-0.0679 -0.712638,-0.0679 z"
         inkscape:connector-curvature="0" />
      <path
         d="m 70.664428,124.57987 c 2.450759,7.95746 5.314479,15.39571 6.197608,32.20657 0.06381,1.22463 0.140189,2.38558 0.233024,3.45328 0,0 0,0 0,0 0.339115,3.90773 0.882822,6.3907 1.799377,6.73398 -1.5e-5,-1e-5 0.08139,0.0304 0.08137,0.0304 0.973152,0.36357 1.88758,-1.62016 2.74053,-5.39536 1.088682,-5.65512 1.665142,-9.05568 1.834408,-11.44083 0.843378,-11.8841 1.592927,-26.67113 1.474254,-41.55168 -0.02347,-2.94278 -0.324406,-5.72763 -0.926185,-8.07634 -0.619593,-2.367107 -1.459206,-3.551351 -2.471726,-3.339174 -8e-6,10e-7 -0.0763,0.01603 -0.07631,0.01603 -0.747546,0.157423 -1.291983,1.618293 -1.691311,4.110354 -0.396726,2.63482 -0.499664,5.36388 -0.370021,8.03684 0.634193,12.38681 0.446196,24.30904 0.255664,30.92949 -0.441221,-2.31064 -0.929872,-4.36816 -1.438006,-6.29961 -1.276708,-4.84145 -4.713528,-16.90401 -8.279694,-28.43629 -0.900845,-2.90736 -1.906579,-4.34697 -2.851619,-3.9767 -0.529213,0.20735 -1.056345,0.41882 -1.581442,0.63423 -0.749958,0.30767 -1.124859,1.66623 -1.239957,3.83338 -0.143534,2.2542 -0.01864,4.58202 0.303097,6.85474 1.551891,10.96239 2.128841,27.18359 1.823723,38.56511 -0.06464,2.4112 0.05117,4.79634 0.36213,6.97642 0.299892,2.29481 0.771143,3.74694 1.483599,4.07148 -1.3e-5,-1e-5 0.05516,0.0251 0.05514,0.0251 0.572497,0.26067 1.117718,-0.73852 1.637642,-2.84006 0.531399,-2.22438 0.854105,-4.61188 0.943285,-6.99565 0.420059,-11.84431 0.03817,-21.88893 -0.298585,-28.12576 z"
         style="font-style:normal;font-variant:normal;font-weight:normal;font-stretch:normal;font-size:34.7495842px;font-family:Dyuthi;-inkscape-font-specification:'Dyuthi, Normal';font-variant-ligatures:normal;font-variant-caps:normal;font-variant-numeric:normal;font-feature-settings:normal;text-align:start;writing-mode:lr-tb;text-anchor:start;fill:#fdff80;fill-opacity:1;stroke:#000000;stroke-width:0.76899999;stroke-miterlimit:4;stroke-dasharray:none;stroke-opacity:1"
         id="path4947"
         inkscape:original-d="m 74.109014,133.20316 7.550568,12.31845 q 1.170763,1.91734 3.342612,1.91734 h 0.101805 q 1.81553,0 2.782682,-1.18773 1.136827,-1.79856 1.136827,-2.78268 v -14.8636 q 0,-1.05198 -0.712638,-1.76462 -0.729605,-0.71264 -2.070044,-0.71264 h -0.06787 q -0.984119,0 -1.730692,0.71264 -0.763541,0.76354 -0.746573,1.76462 l 0.322384,11.79247 -8.924942,-13.21774 q -0.712638,-1.05199 -2.036109,-1.05199 h -1.493146 q -1.051989,0 -1.730692,0.71264 -0.746573,0.74657 -0.746573,1.76462 v 16.32281 q 0,1.05199 0.746573,1.76462 0.729605,0.74658 2.036108,0.74658 h 0.06787 q 1.051989,0 1.764627,-0.74658 0.729605,-0.79747 0.712638,-1.76462 z"
         inkscape:connector-curvature="0" />
      <path
         d="m 95.464573,128.22772 c -1.23768,-1.47375 -2.081319,-2.65184 -2.518801,-3.55234 -0.496939,-1.07713 -0.698828,-2.47454 -0.588215,-4.34402 0.09486,-1.60323 0.398331,-3.08963 0.924435,-4.37965 0.627648,-1.41631 1.430991,-2.15579 2.416551,-2.07568 0.77004,0.0293 1.587133,0.58395 2.457871,1.62781 0.493309,0.55972 1.011763,0.38492 1.552369,-0.5639 0.570047,-0.99358 1.039807,-2.48399 1.413857,-4.64253 -1e-5,3e-5 0.0488,-0.13938 0.0488,-0.13936 0.34617,-2.22317 0.50703,-4.6606 0.44934,-7.30983 -0.0814,-2.5585 -0.37974,-4.332807 -0.92129,-5.073936 -1.490428,-2.151936 -2.766082,-3.267189 -3.778286,-3.267714 -2.847911,-0.139852 -5.094803,3.705022 -6.841837,9.65738 -1.678515,5.55829 -2.510639,11.8407 -2.697405,17.20917 -0.26509,7.61984 1.299529,12.11156 4.533291,15.88858 1.053209,1.2186 1.749808,2.41832 2.10325,3.59013 0.346744,1.14183 0.432449,2.5643 0.251276,4.39607 -0.208931,2.11242 -0.642729,3.90831 -1.26273,5.14272 -0.646671,1.45248 -1.382452,2.17304 -2.226725,2.0407 -0.709955,-0.11128 -1.52595,-1.09653 -2.562889,-2.8139 -0.429887,-0.75035 -0.923066,-0.64921 -1.443175,0.31523 -0.513238,0.93676 -0.91324,2.45061 -1.229925,4.78019 -5.4e-5,2.9e-4 -0.05136,0.2734 -0.05141,0.27369 -0.285491,2.17415 -0.412206,4.51265 -0.390502,7.02938 0.01255,2.52959 0.175182,4.32744 0.530939,5.13194 1.103261,3.15388 2.019829,4.99222 2.924254,5.21493 2.372142,0.58415 4.586382,-3.66274 6.66847,-10.51784 1.702326,-5.6819 2.959444,-11.7719 3.564938,-17.10467 0.494922,-4.35893 0.436323,-7.39928 -0.123661,-9.9313 -0.519942,-2.52434 -1.595028,-4.72555 -3.202838,-6.58111 0,0 5e-5,-1.4e-4 5e-5,-1.4e-4 z"
         style="font-style:normal;font-variant:normal;font-weight:normal;font-stretch:normal;font-size:34.7495842px;font-family:Dyuthi;-inkscape-font-specification:'Dyuthi, Normal';font-variant-ligatures:normal;font-variant-caps:normal;font-variant-numeric:normal;font-feature-settings:normal;text-align:start;writing-mode:lr-tb;text-anchor:start;fill:#fdff80;fill-opacity:1;stroke:#000000;stroke-width:0.76899999;stroke-miterlimit:4;stroke-dasharray:none;stroke-opacity:1"
         id="path4949"
         inkscape:original-d="m 100.47662,134.81508 q -2.171849,-0.83142 -2.952357,-1.32348 -0.899282,-0.59386 -0.899282,-1.52708 0,-0.79747 0.678703,-1.3574 0.814444,-0.61083 2.273655,-0.59387 1.136831,0 2.562101,0.40722 0.81445,0.22058 1.49315,-0.18664 0.71264,-0.42419 0.95018,-1.2047 l 0.0339,-0.0339 q 0.18664,-0.79748 -0.23755,-1.57799 -0.44116,-0.74657 -1.23863,-0.93321 -2.20579,-0.54296 -3.512289,-0.54296 -3.614092,-0.0339 -5.853812,1.76462 -2.222751,1.7307 -2.222751,4.63215 0,4.27583 5.887747,6.37981 1.917335,0.6787 2.697845,1.3065 0.76354,0.61083 0.76354,1.51011 0,1.03502 -0.86535,1.57799 -0.865343,0.6278 -2.358489,0.6278 -1.238633,0 -3.274741,-0.64477 -0.865346,-0.28845 -1.645855,0.15271 -0.76354,0.42419 -0.984119,1.28953 l -0.03393,0.0679 q -0.186643,0.79748 0.254514,1.54405 0.424189,0.74658 1.204697,0.93322 2.511201,0.74657 4.174022,0.74657 4.394601,0 6.685221,-2.10398 1.91733,-1.79856 1.91733,-4.53034 0,-2.22275 -1.3574,-3.7668 -1.30651,-1.56102 -4.14009,-2.613 z"
         inkscape:connector-curvature="0" />
      <path
         d="m 113.48788,140.31838 c -0.41218,2.57304 -1.17575,5.06855 -2.25942,7.45506 -1.08407,2.38745 -2.03169,3.76436 -2.87552,3.69749 2e-5,0 -0.10299,-0.008 -0.10298,-0.008 -0.85276,-0.0678 -1.4112,-1.56794 -1.7936,-4.16009 -0.3818,-2.58985 -0.37513,-5.3576 0.0237,-8.14715 0.7543,-5.27678 2.55831,-17.86999 4.48941,-29.80449 0.43894,-2.75285 0.67683,-5.51792 0.64864,-8.12867 0,0 0,0 0,0 -0.002,-0.21019 -0.007,-0.41937 -0.0124,-0.62747 -0.0924,-2.825926 -0.50032,-4.465617 -1.28132,-4.626682 0,0 -0.076,-0.01562 -0.076,-0.01562 -1.0322,-0.142162 -2.02284,1.21777 -2.92467,3.802791 -0.86133,2.505631 -1.48179,5.465641 -1.86849,8.594251 -1.08618,8.78797 -3.18626,26.27033 -3.45428,28.48186 -0.72187,5.95624 -0.76432,12.99541 -0.20142,20.82702 0.20016,2.78487 0.45249,5.28234 0.78174,7.3506 0.64455,4.01096 1.58321,6.4444 3.0713,6.4157 3e-5,0 0.15907,-0.003 0.1591,-0.003 1.1984,0.0111 2.47383,-1.63265 3.86307,-4.51609 1.09908,-2.28105 2.23496,-5.26672 3.3778,-8.504 2.51938,-7.11018 4.38409,-13.35591 5.34925,-18.66424 0.94121,-5.17662 2.79778,-15.39031 5.46225,-26.426 0.67771,-2.80693 1.13827,-5.59655 1.27151,-8.14052 0.15233,-2.6875 -0.17035,-4.38589 -1.09805,-4.79581 1e-5,0 -0.0697,-0.0308 -0.0697,-0.0308 -0.74154,-0.25763 -1.70093,0.86939 -2.79026,3.17504 -0.47716,1.04888 -0.90951,2.1718 -1.29507,3.34831 -0.47792,1.45846 -0.88289,2.99609 -1.2123,4.57365 -2.48105,12.02196 -4.27037,23.19388 -5.18224,28.87723 z"
         style="font-style:normal;font-variant:normal;font-weight:normal;font-stretch:normal;font-size:34.7495842px;font-family:Dyuthi;-inkscape-font-specification:'Dyuthi, Normal';font-variant-ligatures:normal;font-variant-caps:normal;font-variant-numeric:normal;font-feature-settings:normal;text-align:start;writing-mode:lr-tb;text-anchor:start;fill:#fdff80;fill-opacity:1;stroke:#000000;stroke-width:0.76899999;stroke-miterlimit:4;stroke-dasharray:none;stroke-opacity:1"
         id="path4951"
         inkscape:original-d="m 121.68609,138.90426 q 0.017,1.62889 -1.2047,2.85055 -1.2047,1.2047 -2.64694,1.2047 h -0.11877 q -1.45922,0 -2.69785,-1.2047 -1.2556,-1.22166 -1.23863,-2.93539 l 0.10181,-10.35022 q 0,-1.01805 -0.71264,-1.76462 -0.72961,-0.74658 -1.76463,-0.74658 h -0.0679 q -1.35741,0.017 -2.10398,0.74658 -0.71264,0.71263 -0.71264,1.76462 v 9.63758 q 0,3.86861 2.69785,6.56645 2.71481,2.71481 6.56645,2.71481 h 0.18664 q 3.7668,0.017 6.37981,-2.6639 2.59603,-2.64694 2.59603,-6.37981 v -9.87513 q 0,-1.05199 -0.71263,-1.76462 -0.72961,-0.74658 -2.07005,-0.74658 h -0.0679 q -1.05199,0.017 -1.79856,0.74658 -0.71264,0.74657 -0.71264,1.76462 z"
         inkscape:connector-curvature="0" />
      <path
         d="m 127.76854,126.70694 c -0.409,3.07776 -2.33042,24.73667 -2.97995,32.13277 -0.23928,2.74544 -0.23642,5.35484 0.0368,7.51703 0.29354,2.13249 0.79244,3.19602 1.51796,3.05611 1e-5,0 0.0627,-0.0121 0.0627,-0.0121 0.70916,-0.13695 1.50688,-1.44546 2.42919,-3.63274 0.86306,-2.10626 1.60987,-4.60381 2.22563,-7.19489 0.82904,-3.47626 1.64361,-6.32134 2.41465,-8.73083 1.78977,-5.59205 5.17126,-13.60205 7.11343,-18.24064 -1.41472,4.85414 -4.9665,17.89211 -6.64542,28.04302 -0.33513,2.04042 -0.41242,3.99561 -0.21827,5.6706 0.19142,1.64908 0.58311,2.45154 1.17177,2.32383 1e-5,0 0.0319,-0.007 0.032,-0.007 0.753,-0.1634 1.44566,-1.24106 2.11136,-3.00619 0.62792,-1.66237 1.08858,-3.45407 1.38689,-5.29087 1.41694,-8.72463 5.58312,-24.30382 7.13636,-29.15603 0.82269,-2.57001 1.4467,-5.46085 1.73374,-8.38008 0.31333,-2.9759 0.19544,-5.10785 -0.79298,-5.88093 4e-5,3e-5 -0.0432,-0.0338 -0.0432,-0.0337 -0.79231,-0.61936 -1.94626,-0.11167 -3.36507,1.44138 -0.46537,0.52295 -0.91925,1.11247 -1.35702,1.75803 -0.88599,1.30669 -1.69704,2.82972 -2.40045,4.47304 -3.04145,7.16479 -7.93352,19.75071 -9.60166,25.1157 0.62812,-6.62751 1.28885,-17.98069 3.37905,-28.37767 0.60332,-3.01612 1.01971,-6.03806 1.05818,-8.65618 0.0698,-2.75191 -0.2386,-4.5567 -1.11754,-5.0795 1e-5,1e-5 -0.0481,-0.0286 -0.0481,-0.0286 -1.11447,-0.66199 -2.66974,0.80351 -4.43291,3.96669 -1.73724,3.11668 -3.07313,6.80724 -3.9362,10.50527 -2.21445,9.48834 -5.3006,25.2064 -7.39778,39.54595 -0.35213,2.40773 -0.48698,4.79691 -0.38834,7.00209 0.0997,2.22837 0.39635,3.38735 0.91649,3.31382 0.11156,-0.0158 0.22319,-0.0317 0.3349,-0.0478 0.57392,-0.0826 1.2036,-1.36669 1.90009,-3.60533 0.65771,-2.05346 1.17058,-4.3806 1.5266,-6.81587 1.86476,-12.86362 4.69222,-26.90141 6.23715,-33.68843 z"
         style="font-style:normal;font-variant:normal;font-weight:normal;font-stretch:normal;font-size:34.7495842px;font-family:Dyuthi;-inkscape-font-specification:'Dyuthi, Normal';font-variant-ligatures:normal;font-variant-caps:normal;font-variant-numeric:normal;font-feature-settings:normal;text-align:start;writing-mode:lr-tb;text-anchor:start;fill:#fdff80;fill-opacity:1;stroke:#000000;stroke-width:0.76899999;stroke-miterlimit:4;stroke-dasharray:none;stroke-opacity:1"
         id="path4953"
         inkscape:original-d="m 134.00454,131.84575 3.71589,13.03109 q 0.32239,1.11986 1.27257,1.86644 0.96715,0.7296 2.13791,0.7296 h 0.0679 q 1.13683,0 2.17185,-0.7296 0.96716,-0.71264 1.28954,-1.86644 l 3.68196,-13.03109 -0.30541,13.40438 q -0.017,0.91625 0.66173,1.57799 0.66174,0.64476 1.59495,0.64476 h 0.0339 q 1.18773,0 1.90037,-0.6787 0.6787,-0.64477 0.6787,-1.54405 v -14.88056 q 0,-1.74766 -1.23863,-2.95236 -1.2047,-1.20469 -2.91843,-1.20469 h -0.0509 q -1.39134,0 -2.5112,0.83141 -1.10289,0.84838 -1.49315,2.17185 l -3.49532,12.23362 -3.52925,-12.26756 q -0.39025,-1.34044 -1.49315,-2.13791 -1.10289,-0.83141 -2.47726,-0.83141 h -0.0509 q -1.74766,0 -2.95236,1.20469 -1.2047,1.2047 -1.2047,2.95236 v 14.88056 q 0,0.86535 0.6787,1.54405 0.67871,0.6787 1.54405,0.6787 h 0.37329 q 0.95018,0 1.61192,-0.6787 0.64477,-0.6278 0.6278,-1.54405 z"
         inkscape:connector-curvature="0" />
      <path
         d="m 146.25477,154.98615 c 0.79312,-3.69295 1.768,-7.03886 2.43392,-9.38685 1.8446,0.51011 3.7317,1.03722 5.5917,1.56567 0.46441,0.1301 0.95849,-0.0144 1.47519,-0.40941 0.48641,-0.37122 0.83189,-0.88752 1.03099,-1.56109 0,-3e-5 0.0249,-0.0843 0.0249,-0.0844 0.20484,-0.65648 0.19488,-1.25665 -0.0213,-1.81141 -0.23519,-0.60795 -0.58481,-0.99347 -1.05228,-1.13208 -1.88494,-0.55137 -3.77202,-1.09562 -5.64426,-1.6242 0.58366,-2.13787 1.36516,-5.03951 2.42091,-8.06264 1.81341,1.18314 3.62482,2.31695 5.46951,3.41466 0.37079,0.22463 0.81293,0.16437 1.32868,-0.17822 0.17872,-0.12275 0.56624,-0.61761 1.29454,-1.57875 0.0215,-0.0378 0.0431,-0.0756 0.0648,-0.11353 0.72633,-0.97337 1.17314,-2.2405 1.48148,-4.00222 0.2131,-1.17791 0.13095,-2.02674 -0.38686,-2.45645 -2.30499,-1.9128 -4.55575,-3.8451 -6.89264,-5.8448 -0.69572,-0.59534 -1.71756,-0.19209 -2.95897,1.16155 -1.09876,1.21141 -2.02234,2.69792 -2.72228,4.3261 -0.13571,0.31573 -0.26291,0.6365 -0.38137,0.96144 -2.05311,5.63199 -6.41835,22.02528 -7.62186,28.50815 -0.066,0.35542 -0.123,0.71073 -0.17094,1.06491 -0.24706,1.82549 -0.25217,3.61654 -0.002,5.21084 0.30307,1.93122 0.86256,2.86913 1.6527,2.70566 2.88119,-0.59607 5.7912,-1.17347 8.68407,-1.67764 0.52152,-0.0597 0.99335,-0.65572 1.46077,-1.66714 0.45752,-0.94748 0.77882,-2.02204 0.98243,-3.1842 0.009,-0.0486 0.0171,-0.0969 0.0257,-0.14515 0.21446,-1.20411 0.23547,-2.07139 0.0342,-2.73954 -0.22562,-0.72528 -0.56801,-1.10334 -1.02956,-1.14046 -2.19509,-0.0908 -4.38751,-0.1261 -6.5721,-0.11883 z"
         style="font-style:normal;font-variant:normal;font-weight:normal;font-stretch:normal;font-size:34.7495842px;font-family:Dyuthi;-inkscape-font-specification:'Dyuthi, Normal';font-variant-ligatures:normal;font-variant-caps:normal;font-variant-numeric:normal;font-feature-settings:normal;text-align:start;writing-mode:lr-tb;text-anchor:start;fill:#fdff80;fill-opacity:1;stroke:#000000;stroke-width:0.76899999;stroke-miterlimit:4;stroke-dasharray:none;stroke-opacity:1"
         id="path4955"
         inkscape:original-d="m 160.52485,143.62124 v -5.36175 l 6.15923,0.15271 q 0.76354,0.017 1.35741,-0.55993 0.55993,-0.54296 0.55993,-1.35741 v -0.0679 q 0.017,-0.79747 -0.54297,-1.32347 -0.61083,-0.57689 -1.37437,-0.55993 l -6.15923,0.15271 v -4.81879 l 6.53252,0.30542 q 0.66173,0.0339 1.23863,-0.42419 0.18664,-0.15271 0.66174,-1.08593 l 0.017,-0.0679 q 0.45813,-0.93321 -0.37328,-1.95127 -0.54297,-0.6787 -1.51012,-0.6787 h -8.63649 q -1.28954,0 -2.13791,0.86535 -0.89929,0.93321 -0.89929,2.17185 v 15.33868 q 0,1.23863 0.89929,2.13791 0.89928,0.89928 2.13791,0.89928 h 9.09462 q 0.81444,0.017 1.37437,-0.55992 0.55993,-0.54297 0.55993,-1.35741 v -0.0679 q 0,-0.84838 -0.55993,-1.35741 -0.6278,-0.55993 -1.37437,-0.55993 z"
         inkscape:connector-curvature="0" />
      <path
         d="m 167.68238,137.48114 c 0.70091,0.37485 1.40345,0.74384 2.10912,1.10728 0.70043,0.36074 1.11188,1.1085 1.37334,2.16327 0.25299,0.95743 0.11907,2.54946 -0.35716,4.40443 -0.49256,1.91857 -1.12452,3.05184 -1.92606,3.55099 -0.74813,0.48595 -1.53957,0.62505 -2.33775,0.41104 -0.76064,-0.22989 -1.52116,-0.45668 -2.27993,-0.68021 1.10607,-3.34572 1.54019,-6.64599 3.41844,-10.9568 z m 3.36637,14.40091 c 0.62683,-0.29918 1.18321,-0.65775 1.66307,-1.08408 1.32752,-1.1711 2.11269,-2.45021 2.47428,-3.93466 0.4402,-1.80719 0.28032,-3.5999 -0.11077,-5.48621 -0.37267,-1.84631 -0.90562,-3.49886 -2.04383,-4.68719 -0.032,-0.0424 -0.0638,-0.0849 -0.0956,-0.1275 -0.10822,-0.15818 -0.33827,-0.35589 -0.68995,-0.59267 -1.59966,-1.07707 -3.17606,-2.20017 -4.7493,-3.37129 -0.56587,-0.42124 -1.32682,-0.33414 -2.2297,0.29316 -0.89344,0.62072 -1.60467,1.54252 -2.07067,2.66342 -0.27252,0.65551 -6.5863,21.11832 -6.93339,22.88097 -0.2496,1.26756 -0.20011,2.49907 0.14954,3.56106 0.33755,1.02531 0.85435,1.48597 1.50331,1.39288 -3e-5,1e-5 0.0648,-0.009 0.0648,-0.009 0.62314,-0.089 1.18803,-0.69607 1.77506,-1.66436 0.56581,-0.91404 0.95867,-1.95874 1.20822,-3.10634 0.59621,-2.74182 1.54374,-5.25286 2.25736,-7.20862 1.16851,0.26682 2.33899,0.54729 3.50958,0.84231 -0.16886,1.66607 -0.50326,4.13519 -0.59373,6.03518 -0.11103,2.21678 0.65027,3.6218 1.87345,4.05835 0.58604,0.23492 1.14655,0.0936 1.71448,-0.29679 0,0 0.0315,8.1e-4 0.0315,8.1e-4 0.47583,-0.001 0.82543,-0.57564 1.3247,-1.59035 0.39227,-0.80172 0.5868,-1.50933 0.51027,-2.24157 -0.21766,-2.0503 -0.28736,-4.19301 -0.54274,-6.32724 z"
         style="font-style:normal;font-variant:normal;font-weight:normal;font-stretch:normal;font-size:34.7495842px;font-family:Dyuthi;-inkscape-font-specification:'Dyuthi, Normal';font-variant-ligatures:normal;font-variant-caps:normal;font-variant-numeric:normal;font-feature-settings:normal;text-align:start;writing-mode:lr-tb;text-anchor:start;fill:#fdff80;fill-opacity:1;stroke:#000000;stroke-width:0.76899999;stroke-miterlimit:4;stroke-dasharray:none;stroke-opacity:1"
         id="path4957"
         inkscape:original-d="m 177.00036,128.38437 h 2.44333 q 1.2047,0 2.13792,0.98412 0.91625,0.93321 0.91625,3.49531 0,2.57908 -0.91625,3.51229 -0.86535,0.91625 -2.13792,0.95019 h -2.44333 z m 7.73722,10.0957 q 0.7296,-0.6278 1.20469,-1.37437 1.30651,-2.03611 1.30651,-4.08919 0,-2.52817 -1.67979,-4.47944 -1.64586,-1.9343 -4.12312,-2.29062 l -0.15271,-0.0339 q -0.27148,-0.0679 -0.91625,-0.0679 h -5.85381 q -1.05199,0 -1.79856,0.74657 -0.74658,0.74657 -0.74658,1.76463 v 16.47551 q 0,0.98412 0.74658,1.73069 0.71263,0.71264 1.73069,0.71264 h 0.0679 q 0.96715,0 1.73069,-0.71264 0.74657,-0.6787 0.74657,-1.73069 v -5.22601 l 3.73287,-0.0679 1.59495,4.73395 q 0.79748,2.39243 2.78268,2.90145 0.95019,0.27148 1.81553,-0.23754 h 0.0339 q 0.74657,-0.017 1.11986,-1.49315 0.28845,-1.15379 -0.25452,-2.07004 z"
         inkscape:connector-curvature="0" />
    </g>
  </g>
</svg>
